<svg xmlns="http://www.w3.org/2000/svg" viewBox="0 0 420 240"><rect width="420" height="240" fill="#d9ede4"/><circle cx="323" cy="56" r="30" fill="#ffe6a5"/><path d="M0 207Q80 150 210 208T420 200V240H0Z" fill="#badbc8"/><g transform="translate(-15 22) scale(.8)"><circle cx="122" cy="162" r="22" fill="#acdba6"/><circle cx="152" cy="162" r="22" fill="#9bd49d"/><circle cx="180" cy="154" r="22" fill="#8acc96"/><circle cx="205" cy="139" r="22" fill="#79c590"/><circle cx="228" cy="119" r="22" fill="#68ba88"/><circle cx="252" cy="95" r="25" fill="#54ad80"/><g fill="#fff"><circle cx="244.5" cy="92.0" r="5.75"/><circle cx="259.5" cy="92.0" r="5.75"/></g><g fill="#29475b"><circle cx="245.75" cy="92.5" r="2.25"/><circle cx="260.75" cy="92.5" r="2.25"/></g><path d="M247.5 102.5q4.5 5.0 9.0 0" fill="none" stroke="#29475b" stroke-width="3" stroke-linecap="round"/><circle cx="315" cy="150" r="15" fill="#ff8796"/><ellipse cx="322" cy="132" rx="11" ry="6" transform="rotate(-35 322 132)" fill="#77aa74"/></g><g transform="translate(120 10)"><circle cx="178" cy="83" r="31" fill="#ffce69"/><g fill="#fff"><circle cx="168.7" cy="79.28" r="7.13"/><circle cx="187.3" cy="79.28" r="7.13"/></g><g fill="#29475b"><circle cx="170.25" cy="79.9" r="2.79"/><circle cx="188.85" cy="79.9" r="2.79"/></g><path d="M172.42 92.3q5.58 6.2 11.16 0" fill="none" stroke="#29475b" stroke-width="3" stroke-linecap="round"/></g><rect x="250" y="152" width="62" height="62" rx="15" fill="#29475b" opacity=".1"/><rect x="250" y="147" width="62" height="62" rx="15" fill="#ffa896"/><text x="281" y="187" font-family="system-ui,sans-serif" font-size="30" font-weight="700" fill="#29475b" text-anchor="middle">8</text><rect x="324" y="142" width="62" height="62" rx="15" fill="#29475b" opacity=".1"/><rect x="324" y="137" width="62" height="62" rx="15" fill="#cda8e7"/><text x="355" y="177" font-family="system-ui,sans-serif" font-size="30" font-weight="700" fill="#29475b" text-anchor="middle">16</text><g transform="translate(92 51)"><path d="M0 -14 4 -5 14 -4 7 3 9 14 0 8 -9 14 -7 3 -14 -4 -4 -5Z" fill="#edb84a"/></g></svg>
